<svg width="44" height="30" viewBox="0 0 44 30" fill="none" xmlns="http://www.w3.org/2000/svg">
<path d="M42.2638 23.6807L22.9158 12.5303V11.1225C22.9238 11.1203 22.9319 11.1173 22.9413 11.1152C25.9894 10.292 28.0357 8.22066 28.0357 5.55759C28.0357 2.48803 25.7544 0 22.9413 0C20.343 0 18.0844 2.07422 17.8616 4.85372C17.8549 4.89619 17.8509 4.94016 17.8509 4.98413C17.8509 4.98928 17.8495 4.99434 17.8495 5.00025C17.8495 5.55253 18.2603 6 18.7666 6C19.2729 6 19.6837 5.55253 19.6837 5.00025H19.6891C19.7629 4.13522 20.1483 3.51488 20.4866 3.12816C21.1124 2.41116 22.008 2.00025 22.9412 2.00025C24.7392 2.00025 26.2015 3.59616 26.2015 5.55759C26.2015 6.30609 25.9155 6.99244 25.3488 7.59741C24.6868 8.30419 23.7026 8.84916 22.5008 9.17353C22.5008 9.17353 21.1083 9.64228 21.0842 9.65184V9.99975H21.0828V12.5303L1.73757 23.6807C0.699617 24.2636 0 25.3594 0 26.6162C0 28.4854 1.54825 30 3.45761 30C3.4925 30 3.56099 30 3.56099 30H40.4403C40.4403 30 40.5088 30 40.5437 30C42.4531 30 44 28.4854 44 26.6162C44 25.3594 43.3018 24.2636 42.2638 23.6807ZM40.5437 27.999H40.4403H3.56108H3.4577C2.57821 27.999 1.83425 27.3662 1.83425 26.6162C1.83425 26.1533 2.11217 25.7198 2.57812 25.456L2.5862 25.4531L2.59428 25.4473L21.9987 14.264L41.4072 25.4473L41.4153 25.4531L41.4233 25.456C41.8893 25.7197 42.1672 26.1533 42.1672 26.6162C42.1671 27.3662 41.4233 27.999 40.5437 27.999Z" fill="#FFD700"/>
</svg>
